<svg width="120" height="36" viewBox="0 0 120 36" fill="none" xmlns="http://www.w3.org/2000/svg">
<path d="M52.14 25.2C50.2333 25.2 48.74 24.74 47.66 23.82C46.5933 22.8867 46.0267 21.54 45.96 19.78C45.9467 19.42 45.94 18.8333 45.94 18.02C45.94 17.1933 45.9467 16.5933 45.96 16.22C46.0267 14.4867 46.6067 13.1533 47.7 12.22C48.7933 11.2733 50.2733 10.8 52.14 10.8C53.3133 10.8 54.3667 11 55.3 11.4C56.2333 11.7867 56.9667 12.3467 57.5 13.08C58.0467 13.8 58.3267 14.6467 58.34 15.62V15.66C58.34 15.7667 58.2933 15.86 58.2 15.94C58.12 16.0067 58.0267 16.04 57.92 16.04H55.22C55.0467 16.04 54.9133 16.0067 54.82 15.94C54.7267 15.86 54.6467 15.72 54.58 15.52C54.3933 14.84 54.1 14.3667 53.7 14.1C53.3 13.82 52.7733 13.68 52.12 13.68C50.5467 13.68 49.7333 14.56 49.68 16.32C49.6667 16.68 49.66 17.2333 49.66 17.98C49.66 18.7267 49.6667 19.2933 49.68 19.68C49.7333 21.44 50.5467 22.32 52.12 22.32C52.7733 22.32 53.3067 22.18 53.72 21.9C54.1333 21.6067 54.42 21.1333 54.58 20.48C54.6333 20.28 54.7067 20.1467 54.8 20.08C54.8933 20 55.0333 19.96 55.22 19.96H57.92C58.04 19.96 58.14 20 58.22 20.08C58.3133 20.16 58.3533 20.26 58.34 20.38C58.3267 21.3533 58.0467 22.2067 57.5 22.94C56.9667 23.66 56.2333 24.22 55.3 24.62C54.3667 25.0067 53.3133 25.2 52.14 25.2ZM65.143 25.2C63.4896 25.2 62.2163 24.8067 61.323 24.02C60.4296 23.2333 59.943 22.1267 59.863 20.7C59.8496 20.5267 59.843 20.2267 59.843 19.8C59.843 19.3733 59.8496 19.0733 59.863 18.9C59.943 17.4867 60.443 16.3867 61.363 15.6C62.283 14.8 63.543 14.4 65.143 14.4C66.7563 14.4 68.023 14.8 68.943 15.6C69.863 16.3867 70.363 17.4867 70.443 18.9C70.4563 19.0733 70.463 19.3733 70.463 19.8C70.463 20.2267 70.4563 20.5267 70.443 20.7C70.363 22.1267 69.8763 23.2333 68.983 24.02C68.0896 24.8067 66.8096 25.2 65.143 25.2ZM65.143 22.76C65.7296 22.76 66.163 22.5867 66.443 22.24C66.723 21.88 66.883 21.3333 66.923 20.6C66.9363 20.4667 66.943 20.2 66.943 19.8C66.943 19.4 66.9363 19.1333 66.923 19C66.883 18.28 66.7163 17.74 66.423 17.38C66.143 17.02 65.7163 16.84 65.143 16.84C64.0363 16.84 63.4496 17.56 63.383 19L63.363 19.8L63.383 20.6C63.4096 21.3333 63.563 21.88 63.843 22.24C64.1363 22.5867 64.5696 22.76 65.143 22.76ZM76.3295 25.2C75.0229 25.2 74.0029 24.7933 73.2695 23.98C72.5495 23.1533 72.1562 21.9933 72.0895 20.5L72.0695 19.8L72.0895 19.08C72.1429 17.64 72.5362 16.5 73.2695 15.66C74.0162 14.82 75.0362 14.4 76.3295 14.4C77.5429 14.4 78.5229 14.7933 79.2695 15.58V11.3C79.2695 11.1533 79.3162 11.0333 79.4095 10.94C79.5029 10.8467 79.6229 10.8 79.7695 10.8H82.2095C82.3562 10.8 82.4762 10.8467 82.5695 10.94C82.6629 11.0333 82.7095 11.1533 82.7095 11.3V24.5C82.7095 24.6333 82.6629 24.7533 82.5695 24.86C82.4762 24.9533 82.3562 25 82.2095 25H79.9495C79.8162 25 79.6962 24.9533 79.5895 24.86C79.4962 24.7533 79.4495 24.6333 79.4495 24.5V23.86C78.7162 24.7533 77.6762 25.2 76.3295 25.2ZM77.4295 22.52C78.0295 22.52 78.4762 22.3333 78.7695 21.96C79.0629 21.5733 79.2295 21.08 79.2695 20.48C79.2829 20.3067 79.2895 20.0533 79.2895 19.72C79.2895 19.4 79.2829 19.1533 79.2695 18.98C79.2429 18.4333 79.0762 17.98 78.7695 17.62C78.4629 17.26 78.0162 17.08 77.4295 17.08C76.8029 17.08 76.3495 17.2667 76.0695 17.64C75.8029 18.0133 75.6495 18.5267 75.6095 19.18C75.5962 19.3133 75.5895 19.52 75.5895 19.8C75.5895 20.08 75.5962 20.2867 75.6095 20.42C75.6495 21.0733 75.8029 21.5867 76.0695 21.96C76.3495 22.3333 76.8029 22.52 77.4295 22.52ZM89.8667 25.2C88.2667 25.2 87.0067 24.7667 86.0867 23.9C85.1667 23.0333 84.6867 21.7733 84.6467 20.12V19.42C84.7001 17.8467 85.1867 16.62 86.1067 15.74C87.0401 14.8467 88.2867 14.4 89.8467 14.4C90.9801 14.4 91.9334 14.6333 92.7067 15.1C93.4934 15.5533 94.0801 16.18 94.4667 16.98C94.8667 17.78 95.0667 18.7 95.0667 19.74V20.22C95.0667 20.3533 95.0201 20.4733 94.9267 20.58C94.8334 20.6733 94.7134 20.72 94.5667 20.72H88.1667V20.86C88.1934 21.4867 88.3467 21.9933 88.6267 22.38C88.9067 22.7667 89.3134 22.96 89.8467 22.96C90.1801 22.96 90.4534 22.8933 90.6667 22.76C90.8801 22.6133 91.0734 22.44 91.2467 22.24C91.3667 22.0933 91.4601 22.0067 91.5267 21.98C91.6067 21.94 91.7267 21.92 91.8867 21.92H94.3667C94.4867 21.92 94.5867 21.96 94.6667 22.04C94.7601 22.1067 94.8067 22.2 94.8067 22.32C94.8067 22.6667 94.6067 23.0667 94.2067 23.52C93.8201 23.9733 93.2534 24.3667 92.5067 24.7C91.7601 25.0333 90.8801 25.2 89.8667 25.2ZM91.5467 18.74V18.7C91.5467 18.0467 91.3934 17.5333 91.0867 17.16C90.7934 16.7733 90.3801 16.58 89.8467 16.58C89.3267 16.58 88.9134 16.7733 88.6067 17.16C88.3134 17.5333 88.1667 18.0467 88.1667 18.7V18.74H91.5467ZM100.251 25C100.064 25 99.9178 24.96 99.8111 24.88C99.7178 24.7867 99.6378 24.66 99.5711 24.5L95.7911 15.22L95.7511 15.04C95.7511 14.92 95.7911 14.82 95.8711 14.74C95.9644 14.6467 96.0778 14.6 96.2111 14.6H98.4711C98.7644 14.6 98.9578 14.74 99.0511 15.02L101.311 21.16L103.591 15.02C103.684 14.74 103.878 14.6 104.171 14.6H106.431C106.551 14.6 106.658 14.6467 106.751 14.74C106.844 14.82 106.891 14.92 106.891 15.04L106.851 15.22L103.071 24.5C103.004 24.66 102.918 24.7867 102.811 24.88C102.704 24.96 102.558 25 102.371 25H100.251ZM112.975 25.2C111.322 25.2 110.048 24.8067 109.155 24.02C108.262 23.2333 107.775 22.1267 107.695 20.7C107.682 20.5267 107.675 20.2267 107.675 19.8C107.675 19.3733 107.682 19.0733 107.695 18.9C107.775 17.4867 108.275 16.3867 109.195 15.6C110.115 14.8 111.375 14.4 112.975 14.4C114.588 14.4 115.855 14.8 116.775 15.6C117.695 16.3867 118.195 17.4867 118.275 18.9C118.288 19.0733 118.295 19.3733 118.295 19.8C118.295 20.2267 118.288 20.5267 118.275 20.7C118.195 22.1267 117.708 23.2333 116.815 24.02C115.922 24.8067 114.642 25.2 112.975 25.2ZM112.975 22.76C113.562 22.76 113.995 22.5867 114.275 22.24C114.555 21.88 114.715 21.3333 114.755 20.6C114.768 20.4667 114.775 20.2 114.775 19.8C114.775 19.4 114.768 19.1333 114.755 19C114.715 18.28 114.548 17.74 114.255 17.38C113.975 17.02 113.548 16.84 112.975 16.84C111.868 16.84 111.282 17.56 111.215 19L111.195 19.8L111.215 20.6C111.242 21.3333 111.395 21.88 111.675 22.24C111.968 22.5867 112.402 22.76 112.975 22.76Z" fill="#FF5151"/>
<path d="M31.1473 13.5602L31.1255 13.5386C31.1238 13.5374 31.1224 13.5358 31.1215 13.5339L17.5006 0L3.87983 13.5335C3.87826 13.5351 3.8758 13.5382 3.8758 13.5382L3.85333 13.5599C1.77053 15.6409 0.447586 18.354 0.0948177 21.2679C-0.25795 24.1819 0.379698 27.1293 1.90639 29.6418C3.43309 32.1543 5.76122 34.0877 8.52069 35.1345C11.2802 36.1812 14.3126 36.2815 17.136 35.4191C17.3735 35.347 17.6275 35.347 17.8651 35.4191C20.6882 36.2812 23.7205 36.1809 26.4798 35.134C29.2391 34.087 31.567 32.1538 33.0936 29.6415C34.6202 27.1291 35.2579 24.1819 34.9053 21.2681C34.5526 18.3544 33.2299 15.6413 31.1473 13.5602ZM8.7232 22.4847C8.65689 22.5506 8.6043 22.6289 8.56844 22.7148C8.53257 22.8008 8.5141 22.8931 8.51412 22.9862C8.53835 25.3748 9.21776 27.7116 10.4792 29.7451C10.5079 29.7912 10.5211 29.8452 10.517 29.8992C10.513 29.9532 10.4918 30.0046 10.4566 30.046C10.4213 30.0874 10.3738 30.1166 10.3209 30.1295C10.2679 30.1425 10.2122 30.1385 10.1616 30.118C9.21332 29.7217 8.35182 29.1455 7.62531 28.4219C6.13646 26.9423 5.29946 24.9361 5.2981 22.8438C5.29675 20.7516 6.13117 18.7442 7.61812 17.2629L17.5006 7.44468L27.3826 17.2629C28.8698 18.7441 29.7045 20.7514 29.703 22.8438C29.7018 24.9361 28.8647 26.9423 27.3757 28.4219C26.6492 29.1455 25.7877 29.7217 24.8396 30.118C24.7889 30.1385 24.7332 30.1425 24.6802 30.1295C24.6273 30.1166 24.5798 30.0873 24.5445 30.046C24.5093 30.0046 24.488 29.9532 24.484 29.8991C24.4799 29.8451 24.4931 29.7911 24.5218 29.7449C25.7835 27.7116 26.4633 25.3748 26.4879 22.9862C26.4879 22.8931 26.4692 22.8008 26.4332 22.7147C26.3971 22.6285 26.3444 22.5504 26.2779 22.4845L21.6037 17.5584C21.5571 17.5198 21.4985 17.4986 21.4378 17.4986C21.3773 17.4986 21.3186 17.5198 21.2721 17.5584C21.2255 17.5969 21.1942 17.6505 21.1833 17.7097C21.1724 17.769 21.1828 17.83 21.2127 17.8824C23.0281 21.1465 21.467 25.835 18.8637 28.4219L18.85 28.4355C18.4907 28.7887 18.0056 28.9867 17.5002 28.9865C16.9948 28.9863 16.5098 28.788 16.1508 28.4347L16.1382 28.4219C13.5339 25.835 11.9736 21.147 13.7893 17.8831C13.8192 17.8307 13.8296 17.7697 13.8187 17.7104C13.8079 17.6512 13.7764 17.5976 13.7299 17.5591C13.6834 17.5205 13.6247 17.4993 13.5642 17.4993C13.5036 17.4993 13.4449 17.5205 13.3984 17.5591L8.7232 22.4847Z" fill="#FF5151"/>
</svg>
