<svg width="56" height="56" viewBox="0 0 56 56" fill="none" xmlns="http://www.w3.org/2000/svg">
<g filter="url(#filter0_d_3567_148)">
<ellipse cx="28" cy="15.214" rx="10" ry="9.66" fill="#FF5E3A"/>
</g>
<path d="M25.252 11.2175C27.0806 11.0639 28.9194 11.0639 30.748 11.2175L31.629 11.2914C32.2154 11.3407 32.7177 11.6786 32.978 12.162C33.0113 12.2238 32.9863 12.2987 32.9249 12.3353L29.2698 14.5211C28.4859 14.9899 27.4974 14.9997 26.7037 14.5466L23.0241 12.4463C22.9647 12.4124 22.9374 12.3425 22.9642 12.281C23.2022 11.7347 23.7375 11.3446 24.371 11.2914L25.252 11.2175Z" fill="white"/>
<path d="M22.9612 13.3922C22.8702 13.3402 22.7541 13.3961 22.7435 13.4977C22.5955 14.9152 22.6313 16.3462 22.851 17.7573C22.9668 18.5012 23.5952 19.0714 24.371 19.1366L25.252 19.2106C27.0806 19.3641 28.9194 19.3641 30.748 19.2106L31.629 19.1366C32.4048 19.0714 33.0332 18.5012 33.149 17.7573C33.3751 16.3051 33.4065 14.8318 33.2431 13.3738C33.2316 13.2715 33.1136 13.2166 33.023 13.2708L29.7304 15.2398C28.6698 15.874 27.3324 15.8874 26.2585 15.2743L22.9612 13.3922Z" fill="white"/>
<defs>
<filter id="filter0_d_3567_148" x="0" y="0.553955" width="56" height="55.3201" filterUnits="userSpaceOnUse" color-interpolation-filters="sRGB">
<feFlood flood-opacity="0" result="BackgroundImageFix"/>
<feColorMatrix in="SourceAlpha" type="matrix" values="0 0 0 0 0 0 0 0 0 0 0 0 0 0 0 0 0 0 127 0" result="hardAlpha"/>
<feOffset dy="13"/>
<feGaussianBlur stdDeviation="9"/>
<feColorMatrix type="matrix" values="0 0 0 0 0.0658854 0 0 0 0 0.0730469 0 0 0 0 0.1375 0 0 0 0.08 0"/>
<feBlend mode="normal" in2="BackgroundImageFix" result="effect1_dropShadow_3567_148"/>
<feBlend mode="normal" in="SourceGraphic" in2="effect1_dropShadow_3567_148" result="shape"/>
</filter>
</defs>
</svg>
